<svg width="24" height="24" viewBox="0 0 24 24" fill="none" xmlns="http://www.w3.org/2000/svg">
<path d="M5.69979 22.2302C5.69979 22.2302 5.64979 22.2302 5.61979 22.2302C5.20979 22.1902 4.90979 21.8202 4.94979 21.4102C5.07979 20.1302 5.29979 16.5002 4.67979 15.0102L4.39979 14.3402C3.37979 11.9402 2.33979 9.47019 3.60979 6.54019C4.88979 3.58019 7.77978 1.84018 11.5198 1.75018C13.8698 1.71018 15.6398 2.23019 17.0498 3.42019C19.1098 5.15019 19.3698 7.42019 19.5998 9.41019C19.6598 9.95019 19.7198 10.4802 19.8198 10.9802C19.9098 11.4202 20.1498 11.9302 20.3998 12.4602C20.6698 13.0302 20.9498 13.6102 21.0998 14.2302C21.3198 15.6202 20.2098 15.9302 19.7398 16.0602C19.5998 16.1002 19.3298 16.1802 19.2798 16.2302L19.1498 18.5902C18.9898 19.4502 18.2598 20.0802 17.3898 20.1202L14.8798 20.2402V21.4702C14.8798 21.8802 14.5398 22.2202 14.1298 22.2202C13.7198 22.2202 13.3798 21.8802 13.3798 21.4702V20.1402C13.3798 19.3902 13.9598 18.7802 14.7098 18.7402L17.3198 18.6202C17.4798 18.6202 17.6198 18.5002 17.6698 18.3402L17.7998 15.9802C17.9898 14.9802 18.8698 14.7402 19.3398 14.6102C19.4298 14.5902 19.5398 14.5502 19.6198 14.5202C19.5098 14.0602 19.2798 13.5902 19.0498 13.0902C18.7598 12.4902 18.4698 11.8802 18.3498 11.2502C18.2498 10.7102 18.1798 10.1402 18.1098 9.57018C17.8898 7.68018 17.6798 5.90019 16.0798 4.55019C14.9598 3.61019 13.5198 3.18019 11.5498 3.23019C8.4198 3.30019 6.02978 4.71019 4.98978 7.11019C3.96978 9.45018 4.80979 11.4402 5.78979 13.7302L6.0798 14.4102C6.9598 16.5202 6.50979 21.0402 6.44979 21.5502C6.40979 21.9402 6.07979 22.2202 5.70978 22.2202L5.69979 22.2302Z" fill="#525252"/>
<path d="M8.3301 12.7299C8.2301 12.7299 8.13009 12.7099 8.03009 12.6699C7.65009 12.4999 7.48009 12.0599 7.64009 11.6799L9.64009 7.11992C9.76009 6.84992 10.0301 6.66992 10.3201 6.66992C10.6101 6.66992 10.8801 6.83992 11.0001 7.10992L13.0501 11.6699C13.2201 12.0499 13.0501 12.4899 12.6701 12.6599C12.2901 12.8299 11.8501 12.6599 11.6801 12.2799L10.3201 9.25992L9.00009 12.2799C8.88009 12.5599 8.60009 12.7299 8.31009 12.7299H8.3301Z" fill="#525252"/>
<path d="M11.8501 10.0605H8.87012V11.5605H11.8501V10.0605Z" fill="#525252"/>
<path d="M14.5898 12.7301C14.1798 12.7301 13.8398 12.3901 13.8398 11.9801V7.58008C13.8398 7.17008 14.1798 6.83008 14.5898 6.83008C14.9998 6.83008 15.3398 7.17008 15.3398 7.58008V11.9801C15.3398 12.3901 14.9998 12.7301 14.5898 12.7301Z" fill="#525252"/>
</svg>
