<svg width="30" height="30" viewBox="0 0 30 30" fill="none" xmlns="http://www.w3.org/2000/svg">
<path d="M0 5C0 2.23858 2.23858 0 5 0H25C27.7614 0 30 2.23858 30 5V25C30 27.7614 27.7614 30 25 30H5C2.23858 30 0 27.7614 0 25V5Z" fill="#CACCCF"/>
<path d="M0 5C0 2.23858 2.23858 0 5 0H25C27.7614 0 30 2.23858 30 5V25C30 27.7614 27.7614 30 25 30H5C2.23858 30 0 27.7614 0 25V5Z" stroke="#CACCCF"/>
<path d="M9.3797 19.1466C8.98807 19.536 8.98628 20.1692 9.3757 20.5608C9.76512 20.9525 10.3983 20.9542 10.7899 20.5648L9.3797 19.1466ZM21.0141 9.9853C21.0156 9.43302 20.5692 8.98404 20.0169 8.98248L11.0169 8.95702C10.4647 8.95545 10.0157 9.4019 10.0141 9.95418C10.0125 10.5065 10.459 10.9554 11.0113 10.957L19.0112 10.9796L18.9886 18.9796C18.9871 19.5319 19.4335 19.9809 19.9858 19.9824C20.5381 19.984 20.987 19.5375 20.9886 18.9853L21.0141 9.9853ZM10.7899 20.5648L20.7192 10.6916L19.309 9.27337L9.3797 19.1466L10.7899 20.5648Z" fill="#979797"/>
</svg>
