<svg width="14" height="15" viewBox="0 0 14 15" fill="none" xmlns="http://www.w3.org/2000/svg">
<path fill-rule="evenodd" clip-rule="evenodd" d="M7.42404 0.242188C9.60687 0.242188 11.3764 1.96368 11.3764 4.08726C11.3764 6.21083 9.60687 7.93233 7.42404 7.93233C5.2412 7.93233 3.47167 6.21083 3.47167 4.08726C3.47167 1.96368 5.2412 0.242188 7.42404 0.242188ZM5.34399 9.14628H9.50438C11.8567 9.14628 13.7747 10.955 13.8691 13.2209L13.8728 13.3961V14.0032C13.8728 14.3385 13.5934 14.6103 13.2487 14.6103C12.9328 14.6103 12.6717 14.3819 12.6304 14.0856L12.6247 14.0032V13.3961C12.6247 11.7737 11.3163 10.4485 9.67009 10.3647L9.50438 10.3605H5.34399C3.67629 10.3605 2.31417 11.6333 2.22803 13.2349L2.2237 13.3961V14.0032C2.2237 14.3385 1.9443 14.6103 1.59964 14.6103C1.28371 14.6103 1.02261 14.3819 0.981283 14.0856L0.975586 14.0032V13.3961C0.975586 11.1077 2.83482 9.24169 5.16393 9.14982L5.34399 9.14628ZM4.71971 4.08777C4.71971 2.63479 5.93045 1.45693 7.42396 1.45693C8.91748 1.45693 10.1282 2.63479 10.1282 4.08777C10.1282 5.54074 8.91748 6.7186 7.42396 6.7186C5.93045 6.7186 4.71971 5.54074 4.71971 4.08777Z" fill="#6A6A6A"/>
</svg>
